<svg width="24" height="24" viewBox="0 0 24 24" fill="none" xmlns="http://www.w3.org/2000/svg">
<path d="M14.9858 5.00002C14.7032 5.00002 14.4786 5.10144 14.283 5.2898L8.7264 10.716C8.48008 10.9623 8.36417 11.2159 8.35692 11.5274C8.35692 11.8389 8.47284 12.0997 8.7264 12.3388L14.283 17.7723C14.4786 17.9606 14.7105 18.0621 14.9858 18.0621C15.5508 18.0621 16 17.6129 16 17.0551C16 16.7798 15.8841 16.519 15.6812 16.3161L10.7549 11.5274L15.6812 6.74597C15.8841 6.54312 16 6.28232 16 6.00702C16 5.44919 15.5508 5.00002 14.9858 5.00002Z" fill="#7D8696"/>
</svg>
