<svg width="24" height="24" viewBox="0 0 24 24" fill="none" xmlns="http://www.w3.org/2000/svg">
<path d="M10.71 13.2902C10.8993 13.4779 11.0058 13.7335 11.0058 14.0002C11.0058 14.2667 10.8993 14.5224 10.71 14.7102L5.41014 20.0001H8.00023C8.35749 20.0001 8.68763 20.1906 8.86626 20.5C9.04489 20.8094 9.04489 21.1907 8.86626 21.5001C8.68763 21.8095 8.35749 22 8.00023 22H2.99998C2.86923 21.9985 2.74015 21.9714 2.61995 21.92C2.37569 21.8185 2.18151 21.6243 2.08002 21.3801C2.02863 21.2599 2.00151 21.1308 2 21V15.9998C2 15.6426 2.19052 15.3124 2.4999 15.1338C2.80928 14.9552 3.19064 14.9552 3.50003 15.1338C3.80942 15.3124 3.99993 15.6426 3.99993 15.9998V18.5899L9.28989 13.2897V13.2898C9.47773 13.1005 9.73339 12.994 9.99988 12.994C10.2666 12.994 10.5222 13.1005 10.7099 13.2898L10.71 13.2902ZM21.9203 2.61994C21.8189 2.37569 21.6247 2.18151 21.3804 2.08002C21.2602 2.02863 21.1311 2.00151 21.0004 2H16.0001C15.6429 2 15.3127 2.19052 15.1341 2.49989C14.9555 2.80927 14.9555 3.19063 15.1341 3.50002C15.3127 3.80941 15.6429 3.99991 16.0001 3.99991H18.5902L13.29 9.28983H13.2901C13.1008 9.47767 12.9943 9.73332 12.9943 9.99981C12.9943 10.2665 13.1008 10.5222 13.2901 10.7098C13.4778 10.8991 13.7335 11.0056 14.0001 11.0056C14.2666 11.0056 14.5223 10.8991 14.7101 10.7098L20.0001 5.41001V8.00007C20.0001 8.35733 20.1906 8.68746 20.5 8.8661C20.8093 9.04473 21.1907 9.04473 21.5001 8.8661C21.8095 8.68746 22 8.35733 22 8.00007V2.99987C21.9985 2.86912 21.9714 2.74004 21.92 2.61984L21.9203 2.61994Z" fill="#7D8696"/>
</svg>
