<svg width="24" height="24" viewBox="0 0 24 24" fill="none" xmlns="http://www.w3.org/2000/svg">
<path d="M12.923 6.6462V3.92301C12.923 3.41531 12.5077 3 12 3C11.4923 3 11.077 3.41531 11.077 3.92301V6.64603C10.1308 7.0153 9.46161 7.93831 9.46161 8.99995C9.46161 10.0846 10.1308 11.0076 11.1002 11.3769C11.1002 11.4231 11.0772 11.4923 11.0772 11.5385V19.154C11.0772 19.6617 11.4925 20.077 12.0002 20.077C12.5079 20.077 12.9232 19.6617 12.9232 19.154L12.923 11.5385C12.923 11.4693 12.923 11.4231 12.9 11.3769C13.8692 11.0078 14.5385 10.0846 14.5385 8.99995C14.5385 7.91532 13.8692 7.01531 12.923 6.6462H12.923Z" fill="#7D8696"/>
<path d="M19.3846 11.0308V3.92301C19.3846 3.41531 18.9693 3 18.4616 3C17.9539 3 17.5386 3.41531 17.5386 3.92301V11.0308C16.5924 11.4001 15.9232 12.3231 15.9232 13.3847C15.9232 14.4693 16.5924 15.3924 17.5618 15.7616C17.5618 15.8078 17.5388 15.8771 17.5388 15.9233V19.154C17.5388 19.6617 17.9541 20.077 18.4618 20.077C18.9695 20.077 19.3848 19.6617 19.3848 19.154L19.3846 15.9231C19.3846 15.8539 19.3846 15.8077 19.3616 15.7615C20.3308 15.3924 21 14.4694 21 13.3847C21 12.3001 20.3308 11.4001 19.3846 11.0308H19.3846Z" fill="#7D8696"/>
<path d="M6.46137 11.0308V3.92301C6.46137 3.41531 6.04607 3 5.53837 3C5.03067 3 4.61536 3.41531 4.61536 3.92301V11.0308C3.66916 11.4001 3 12.3231 3 13.3847C3 14.4693 3.66916 15.3924 4.63856 15.7616C4.63856 15.8078 4.61554 15.8771 4.61554 15.9233V19.154C4.61554 19.6617 5.03085 20.077 5.53855 20.077C6.04625 20.077 6.46155 19.6617 6.46155 19.154L6.46139 15.9231C6.46139 15.8539 6.46139 15.8077 6.43837 15.7615C7.40745 15.3924 8.07677 14.4694 8.07677 13.3847C8.07677 12.3001 7.40745 11.4001 6.46141 11.0308H6.46137Z" fill="#7D8696"/>
</svg>
