<svg width="24" height="24" viewBox="0 0 24 24" fill="none" xmlns="http://www.w3.org/2000/svg">
<path d="M21.8931 9.24247C21.6138 8.3975 20.8954 7.79395 20.0375 7.6532L15.927 7.04961L14.0912 3.30762C13.6922 2.50296 12.914 2 12.0161 2C11.1381 2 10.34 2.50296 9.94099 3.30762L8.10526 7.04961L3.99481 7.6532C3.11682 7.77389 2.39849 8.39754 2.11914 9.24247C1.83979 10.0874 2.05929 11.0129 2.69772 11.6366L5.67085 14.5537L4.9724 18.6779C4.83265 19.5632 5.17199 20.4282 5.89034 20.9513C6.28937 21.2531 6.76833 21.3939 7.24711 21.3939C7.62626 21.3939 7.98536 21.2933 8.32453 21.1324L12.016 19.1809L15.6874 21.1324C16.0266 21.3134 16.3859 21.3939 16.7648 21.3939C17.2637 21.3939 17.7226 21.233 18.1216 20.9513C18.8399 20.4283 19.199 19.5431 19.0396 18.6779L18.3411 14.5537L21.3142 11.6366C21.9329 11.0129 22.1524 10.0874 21.893 9.24247H21.8931ZM16.3659 14.5135L17.1242 18.9998C17.1441 19.1407 17.0843 19.2815 16.9646 19.3821C16.8449 19.4625 16.6852 19.4827 16.5655 19.4022L12.5748 17.2897C12.2157 17.1087 11.7767 17.1087 11.4175 17.2897L7.42678 19.4022C7.30708 19.4625 7.14744 19.4625 7.02775 19.3821C6.90805 19.3017 6.84819 19.1608 6.8681 18.9998L7.66631 14.5135C7.72616 14.1111 7.60646 13.6886 7.30722 13.4069L4.07463 10.2283C3.97483 10.1277 3.93488 9.96676 3.97483 9.84605C4.01478 9.70516 4.13448 9.60468 4.27408 9.58447L8.74369 8.92057C9.14273 8.86023 9.50196 8.59865 9.68151 8.23658L11.6769 4.15258C11.7367 4.01168 11.8765 3.93127 12.0161 3.93127C12.1558 3.93127 12.2954 4.01168 12.3553 4.15258L14.3506 8.23658C14.5302 8.59864 14.8694 8.86022 15.2884 8.92057L19.7581 9.58447C19.8978 9.60454 20.0175 9.70516 20.0573 9.84605C20.0972 9.98695 20.0573 10.1277 19.9575 10.2283L16.7251 13.407C16.4258 13.6887 16.306 14.1111 16.3658 14.5134L16.3659 14.5135Z" fill="#7D8696"/>
</svg>
